<?xml version="1.0" encoding="UTF-8"?>
<svg version="1.1" xmlns="http://www.w3.org/2000/svg" width="96" height="96">
<path d="M0 0 C2.42990112 1.66799927 2.42990112 1.66799927 4.81201172 4.03564453 C6.1627327 5.35799606 6.1627327 5.35799606 7.54074097 6.70706177 C8.50449179 7.68155244 9.46745546 8.65682212 10.4296875 9.6328125 C11.42914813 10.62822925 12.42949781 11.62275405 13.43069458 12.61642456 C15.52326869 14.70016283 17.60463197 16.79434077 19.67871094 18.89648438 C22.33514032 21.58709968 25.01760343 24.24987433 27.70905876 26.90539742 C29.77890258 28.95353514 31.83421176 31.01578075 33.88544083 33.08254623 C34.86900923 34.07011039 35.85703576 35.05325547 36.84957504 36.03180313 C38.23570367 37.40265525 39.60055095 38.79492499 40.96435547 40.18798828 C41.74567841 40.97408478 42.52700134 41.76018127 43.33200073 42.57009888 C45.47480337 45.6916821 45.62501877 47.28300996 45 51 C43.33200073 53.42990112 43.33200073 53.42990112 40.96435547 55.81201172 C40.08278778 56.71249237 39.20122009 57.61297302 38.29293823 58.54074097 C37.31844756 59.50449179 36.34317788 60.46745546 35.3671875 61.4296875 C34.37177075 62.42914813 33.37724595 63.42949781 32.38357544 64.43069458 C30.29983717 66.52326869 28.20565923 68.60463197 26.10351562 70.67871094 C23.41290032 73.33514032 20.75012567 76.01760343 18.09460258 78.70905876 C16.04646486 80.77890258 13.98421925 82.83421176 11.91745377 84.88544083 C10.92988961 85.86900923 9.94674453 86.85703576 8.96819687 87.84957504 C7.59734475 89.23570367 6.20507501 90.60055095 4.81201172 91.96435547 C4.02591522 92.74567841 3.23981873 93.52700134 2.42990112 94.33200073 C-0.6916821 96.47480337 -2.28300996 96.62501877 -6 96 C-8.42990112 94.33200073 -8.42990112 94.33200073 -10.81201172 91.96435547 C-11.71249237 91.08278778 -12.61297302 90.20122009 -13.54074097 89.29293823 C-14.50449179 88.31844756 -15.46745546 87.34317788 -16.4296875 86.3671875 C-17.42914813 85.37177075 -18.42949781 84.37724595 -19.43069458 83.38357544 C-21.52326869 81.29983717 -23.60463197 79.20565923 -25.67871094 77.10351562 C-28.33514032 74.41290032 -31.01760343 71.75012567 -33.70905876 69.09460258 C-35.77890258 67.04646486 -37.83421176 64.98421925 -39.88544083 62.91745377 C-40.86900923 61.92988961 -41.85703576 60.94674453 -42.84957504 59.96819687 C-44.23570367 58.59734475 -45.60055095 57.20507501 -46.96435547 55.81201172 C-48.13633987 54.63286697 -48.13633987 54.63286697 -49.33200073 53.42990112 C-51.47480337 50.3083179 -51.62501877 48.71699004 -51 45 C-49.33200073 42.57009888 -49.33200073 42.57009888 -46.96435547 40.18798828 C-45.64200394 38.8372673 -45.64200394 38.8372673 -44.29293823 37.45925903 C-43.31844756 36.49550821 -42.34317788 35.53254454 -41.3671875 34.5703125 C-40.37177075 33.57085187 -39.37724595 32.57050219 -38.38357544 31.56930542 C-36.29983717 29.47673131 -34.20565923 27.39536803 -32.10351562 25.32128906 C-29.41290032 22.66485968 -26.75012567 19.98239657 -24.09460258 17.29094124 C-22.04646486 15.22109742 -19.98421925 13.16578824 -17.91745377 11.11455917 C-16.92988961 10.13099077 -15.94674453 9.14296424 -14.96819687 8.15042496 C-13.59734475 6.76429633 -12.20507501 5.39944905 -10.81201172 4.03564453 C-9.63286697 2.86366013 -9.63286697 2.86366013 -8.42990112 1.66799927 C-5.3083179 -0.47480337 -3.71699004 -0.62501877 0 0 Z M-6.6015625 11.40625 C-7.61447542 12.43249072 -8.62208127 13.46399005 -9.625 14.5 C-10.140625 15.02464844 -10.65625 15.54929687 -11.1875 16.08984375 C-12.46284932 17.38881065 -13.73201261 18.69384577 -15 20 C-11.74922159 22.4635601 -11.74922159 22.4635601 -6 23 C-3.69 19.37 -1.38 15.74 1 12 C0.01 11.01 -0.98 10.02 -2 9 C-4.34591609 8.77366257 -4.34591609 8.77366257 -6.6015625 11.40625 Z M5 18 C2.525 22.455 2.525 22.455 0 27 C2.1346875 27.99 2.1346875 27.99 4.3125 29 C5.11300781 29.37125 5.91351563 29.7425 6.73828125 30.125 C9.06213959 31.18040667 9.06213959 31.18040667 12 31 C12.61884342 25.00907121 12.61884342 25.00907121 9.625 20 C7.28487188 17.79798559 7.28487188 17.79798559 5 18 Z M-21 26 C-22.37167605 27.20959616 -23.72193609 28.44351188 -25.0625 29.6875 C-25.81660156 30.37199219 -26.57070313 31.05648438 -27.34765625 31.76171875 C-29.26935013 33.87637016 -29.26935013 33.87637016 -28.8984375 36.53125 C-28.01937515 38.94676046 -27.07940825 40.74644396 -25.5625 42.8125 C-25.13066406 43.41707031 -24.69882812 44.02164063 -24.25390625 44.64453125 C-23.63322266 45.31548828 -23.63322266 45.31548828 -23 46 C-22.34 46 -21.68 46 -21 46 C-19.77561452 44.58224382 -19.77561452 44.58224382 -18.6171875 42.71875 C-18.17246094 42.04199219 -17.72773437 41.36523438 -17.26953125 40.66796875 C-16.80933594 39.95253906 -16.34914063 39.23710938 -15.875 38.5 C-15.40707031 37.78457031 -14.93914063 37.06914063 -14.45703125 36.33203125 C-13.29847499 34.55873085 -12.14843934 32.7798691 -11 31 C-13.92348758 27.71669856 -16.75457495 27.04133067 -21 26 Z M-5 33 C-6.69866502 34.9232133 -6.69866502 34.9232133 -8.1875 37.375 C-8.71730469 38.18710937 -9.24710938 38.99921875 -9.79296875 39.8359375 C-11.16237152 41.87812591 -11.16237152 41.87812591 -11 44 C-5.31497465 42.35433477 -0.23318364 39.70967216 5 37 C2.7448078 34.7448078 0.9952413 34.02276532 -2 33 C-2.99 33 -3.98 33 -5 33 Z M-36 41 C-37.38232443 42.62626404 -38.71937515 44.2925002 -40 46 C-35.05 46.99 -35.05 46.99 -30 48 C-31.98 44.535 -31.98 44.535 -34 41 C-34.66 41 -35.32 41 -36 41 Z M17 42 C15.80911014 47.38027025 14.7080481 52.45291384 15 58 C18.40955988 59.46538531 21.2743281 60.28194274 25 60 C28.9266475 57.1558337 31.95003201 53.7508117 35 50 C33.42056504 46.84113009 30.24363834 46.17598885 27.125 44.875 C26.48691406 44.59785156 25.84882812 44.32070313 25.19140625 44.03515625 C22.29676387 42.80840802 20.1754896 42 17 42 Z M-0.5625 46.875 C-1.35591797 47.23980469 -2.14933594 47.60460938 -2.96679688 47.98046875 C-3.72154297 48.33496094 -4.47628906 48.68945312 -5.25390625 49.0546875 C-5.94814697 49.37937012 -6.6423877 49.70405273 -7.35766602 50.03857422 C-9.17977642 50.90458787 -9.17977642 50.90458787 -10 53 C-7.75113762 53.50509208 -5.50086131 54.00389179 -3.25 54.5 C-1.99703125 54.7784375 -0.7440625 55.056875 0.546875 55.34375 C4.06912245 56.12446903 4.06912245 56.12446903 8 56 C8.66 51.71 9.32 47.42 10 43 C6.22833031 43 2.79963929 45.28861917 -0.5625 46.875 Z M-14 59 C-12.70208638 62.48174753 -11.18014318 65.51615907 -9.1796875 68.64453125 C-8.64472656 69.48564453 -8.10976563 70.32675781 -7.55859375 71.19335938 C-7.00300781 72.05767578 -6.44742188 72.92199219 -5.875 73.8125 C-5.03001953 75.13797852 -5.03001953 75.13797852 -4.16796875 76.49023438 C-2.78236826 78.66257413 -1.39295366 80.83237083 0 83 C2.0160489 82.29365847 2.0160489 82.29365847 4 81 C4.81987186 79.09974733 4.81987186 79.09974733 5.046875 76.8671875 C5.16933594 76.06152344 5.29179688 75.25585938 5.41796875 74.42578125 C5.58232422 73.16314453 5.58232422 73.16314453 5.75 71.875 C5.93755859 70.60076172 5.93755859 70.60076172 6.12890625 69.30078125 C6.43535194 67.20280688 6.71978158 65.10163818 7 63 C4.06333774 62.32944715 1.12577641 61.66340947 -1.8125 61 C-3.06256836 60.71382812 -3.06256836 60.71382812 -4.33789062 60.421875 C-5.54155273 60.15117188 -5.54155273 60.15117188 -6.76953125 59.875 C-7.50792236 59.70742188 -8.24631348 59.53984375 -9.00708008 59.3671875 C-11.15397948 58.90940192 -11.15397948 58.90940192 -14 59 Z M-23 60 C-25.24703174 62.68087104 -25.24703174 62.68087104 -24.79516602 64.99902344 C-23.91369174 67.21718836 -22.98500231 68.3618925 -21.27734375 70.015625 C-20.73916016 70.54414062 -20.20097656 71.07265625 -19.64648438 71.6171875 C-18.80053711 72.42542969 -18.80053711 72.42542969 -17.9375 73.25 C-17.08575195 74.08144531 -17.08575195 74.08144531 -16.21679688 74.9296875 C-14.81787531 76.29334214 -13.40980886 77.64760417 -12 79 C-12 75.723477 -12.45783055 74.89555297 -14.15234375 72.20703125 C-14.82233398 71.1387207 -14.82233398 71.1387207 -15.50585938 70.04882812 C-15.97830078 69.31083984 -16.45074219 68.57285156 -16.9375 67.8125 C-17.40607422 67.06291016 -17.87464844 66.31332031 -18.35742188 65.54101562 C-20.12001928 62.7307981 -20.12001928 62.7307981 -22 60 C-22.33 60 -22.66 60 -23 60 Z M13 65 C13 66.98 13 68.96 13 71 C14.65 69.35 16.3 67.7 18 66 C16.35 65.67 14.7 65.34 13 65 Z " fill="#FFFFFF" transform="translate(51,0)"/>
</svg>
