<svg xmlns="http://www.w3.org/2000/svg" xmlns:xlink="http://www.w3.org/1999/xlink" viewBox="0,0,256,256" width="96px" height="96px"><g fill="#ffffff" fill-rule="nonzero" stroke="none" stroke-width="1" stroke-linecap="butt" stroke-linejoin="miter" stroke-miterlimit="10" stroke-dasharray="" stroke-dashoffset="0" font-family="none" font-weight="none" font-size="none" text-anchor="none" style="mix-blend-mode: normal"><g transform="scale(10.66667,10.66667)"><path d="M9.13672,3.86914c-0.015,0 -0.02992,0.00095 -0.04492,0.00195c-0.127,0.01 -3.13836,0.26927 -5.06836,1.82227c-1.008,0.932 -3.02344,6.37984 -3.02344,11.08984c0,0.083 0.0215,0.16333 0.0625,0.23633c1.391,2.443 5.18483,3.08333 6.04883,3.11133h0.01563c0.153,0 0.29672,-0.07326 0.38672,-0.19727l0.875,-1.20117c-2.359,-0.61 -3.56381,-1.64603 -3.63281,-1.70703c-0.198,-0.175 -0.21797,-0.47583 -0.04297,-0.67383c0.094,-0.107 0.22542,-0.16211 0.35742,-0.16211c0.112,0 0.22541,0.03914 0.31641,0.11914c0.029,0.026 2.24733,1.9082 6.61133,1.9082c4.372,0 6.59128,-1.89116 6.61328,-1.91016c0.091,-0.079 0.20441,-0.11719 0.31641,-0.11719c0.132,0 0.26242,0.05411 0.35742,0.16211c0.174,0.198 0.15598,0.49983 -0.04102,0.67383c-0.07,0.062 -1.27577,1.09508 -3.63477,1.70508l0.875,1.20313c0.09,0.124 0.23372,0.19727 0.38672,0.19727h0.01563c0.865,-0.027 4.65978,-0.66733 6.05078,-3.11133c0.041,-0.072 0.0625,-0.15333 0.0625,-0.23633c0,-4.71 -2.01583,-10.15833 -3.04883,-11.11133c-1.904,-1.531 -4.91497,-1.78978 -5.04297,-1.80078c-0.013,-0.001 -0.02801,-0.00195 -0.04101,-0.00195c-0.186,0 -0.35659,0.11025 -0.43359,0.28125c-0.006,0.012 -0.07153,0.16344 -0.14453,0.39844c1.259,0.212 2.80508,0.64077 4.20508,1.50977c0.224,0.139 0.2933,0.4332 0.1543,0.6582c-0.09,0.146 -0.24625,0.22656 -0.40625,0.22656c-0.086,0 -0.17295,-0.02327 -0.25195,-0.07227c-2.406,-1.491 -5.41223,-1.56641 -5.99023,-1.56641c-0.578,0 -3.58428,0.07636 -5.98828,1.56836c-0.079,0.048 -0.16595,0.07031 -0.25195,0.07031c-0.16,0 -0.3172,-0.07861 -0.4082,-0.22461c-0.14,-0.225 -0.0697,-0.52016 0.1543,-0.66016c1.4,-0.868 2.94703,-1.29581 4.20703,-1.50781c-0.074,-0.236 -0.14148,-0.38644 -0.14648,-0.39844c-0.077,-0.171 -0.24469,-0.2832 -0.42969,-0.2832zM12,7.30469c0.296,0 2.95059,0.03562 4.93359,1.26563c0.393,0.244 0.84364,0.375 1.30664,0.375c0.393,0 0.77042,-0.08981 1.10742,-0.25781c0.617,1.553 1.34317,3.99872 1.57617,6.51172c-0.04,-0.056 -0.08291,-0.11011 -0.12891,-0.16211c-0.47,-0.539 -1.15023,-0.8457 -1.86523,-0.8457c-0.597,0 -1.17561,0.21403 -1.59961,0.58203c-0.073,0.059 -1.82508,1.44531 -5.33008,1.44531c-3.504,0 -5.25497,-1.38406 -5.29297,-1.41406c-0.453,-0.397 -1.03277,-0.61524 -1.63477,-0.61524c-0.711,0 -1.38842,0.30494 -1.85742,0.83594c-0.049,0.055 -0.09467,0.11287 -0.13867,0.17188c0.233,-2.511 0.95827,-4.96167 1.57227,-6.51367c0.338,0.169 0.71733,0.25977 1.11133,0.25977c0.462,0 0.91269,-0.12905 1.30469,-0.37305c1.985,-1.231 4.63955,-1.26562 4.93555,-1.26562zM8.89063,10.04492c-0.924,0 -1.67383,0.85611 -1.67383,1.91211c0,1.056 0.74883,1.91211 1.67383,1.91211c0.925,0 1.67383,-0.85611 1.67383,-1.91211c0,-1.057 -0.74883,-1.91211 -1.67383,-1.91211zM15.10938,10.04492c-0.924,0 -1.67383,0.85611 -1.67383,1.91211c0,1.056 0.74883,1.91211 1.67383,1.91211c0.925,0 1.67383,-0.85611 1.67383,-1.91211c0,-1.057 -0.74983,-1.91211 -1.67383,-1.91211z"></path></g></g></svg>