<svg xmlns="http://www.w3.org/2000/svg" xmlns:xlink="http://www.w3.org/1999/xlink" viewBox="0,0,256,256" width="96px" height="96px"><g fill="#ffffff" fill-rule="nonzero" stroke="none" stroke-width="1" stroke-linecap="butt" stroke-linejoin="miter" stroke-miterlimit="10" stroke-dasharray="" stroke-dashoffset="0" font-family="none" font-weight="none" font-size="none" text-anchor="none" style="mix-blend-mode: normal"><g transform="scale(5.33333,5.33333)"><path d="M7.50391,3.99805c-0.42051,-0.00041 -0.82188,0.17568 -1.10633,0.48538c-0.28445,0.3097 -0.42585,0.72457 -0.38976,1.14352l2.91211,34c0.05315,0.6161 0.47889,1.13645 1.07227,1.31055l13.5918,4c0.27607,0.0811 0.56964,0.0811 0.8457,0l13.58984,-4c0.59261,-0.17476 1.01746,-0.69497 1.07031,-1.31055l2.91211,-34c0.03606,-0.41862 -0.10508,-0.83317 -0.3891,-1.1428c-0.28402,-0.30964 -0.68487,-0.48597 -1.10504,-0.4861zM9.13672,6.99805h29.73828l-2.68555,31.35156l-12.18164,3.58594l-12.18555,-3.58594zM16.04102,12.99805c-0.54095,-0.00765 -1.04412,0.27656 -1.31683,0.74381c-0.27271,0.46725 -0.27271,1.04514 0,1.51238c0.27271,0.46725 0.77588,0.75146 1.31683,0.74381h14.29688l-0.42969,5h-13.09766c-0.54095,-0.00765 -1.04412,0.27656 -1.31683,0.74381c-0.27271,0.46725 -0.27271,1.04514 0,1.51238c0.27271,0.46725 0.77588,0.75146 1.31683,0.74381h12.83984l-0.55273,6.43945l-5.09766,1.49805l-5.08789,-1.49805l-0.26172,-3.06641c-0.04558,-0.53425 -0.37276,-1.00359 -0.85827,-1.23117c-0.48551,-0.22757 -1.05555,-0.1788 -1.49533,0.12795c-0.43979,0.30675 -0.68248,0.82485 -0.63663,1.35908l0.34961,4.08789c0.05286,0.61557 0.47771,1.13578 1.07031,1.31055l6.49609,1.91211c0.27668,0.08149 0.57098,0.08149 0.84766,0l6.50391,-1.91211c0.59261,-0.17476 1.01746,-0.69497 1.07031,-1.31055l1.46875,-17.08789c0.03606,-0.41862 -0.10508,-0.83317 -0.3891,-1.1428c-0.28402,-0.30964 -0.68487,-0.48597 -1.10504,-0.4861z"></path></g></g></svg>